<svg width="16" height="16" viewBox="0 0 16 16" fill="none" xmlns="http://www.w3.org/2000/svg">
    <mask id="mask0_258_204" style="mask-type:luminance" maskUnits="userSpaceOnUse" x="0" y="0"
        width="16" height="16">
        <path
            d="M8 16C12.4183 16 16 12.4183 16 8C16 3.58172 12.4183 0 8 0C3.58172 0 0 3.58172 0 8C0 12.4183 3.58172 16 8 16Z"
            fill="white" />
    </mask>
    <g mask="url(#mask0_258_204)">
        <path d="M0 0H16V16H0V0Z" fill="#496E2D" />
        <path
            d="M11.8438 5.5V8.53125H11.3438C11.2563 8.53125 11.1781 8.525 11.1 8.51875C11.1938 8.38438 11.2625 8.24062 11.3 8.09062C11.3415 7.93793 11.3518 7.77843 11.3304 7.62165C11.3089 7.46488 11.256 7.31403 11.175 7.17812C11.0862 7.03786 10.9635 6.92224 10.8182 6.84194C10.6729 6.76165 10.5097 6.71928 10.3438 6.71875C10.1783 6.71981 10.0157 6.76242 9.87103 6.84269C9.72633 6.92296 9.60412 7.0383 9.51562 7.17812C9.35 7.44687 9.30625 7.77187 9.3875 8.09062C9.425 8.24062 9.49375 8.38438 9.5875 8.51875C9.50937 8.525 9.43125 8.53125 9.34375 8.53125H8.84375V6.71875H8.09375V9.28125C8.09375 9.40557 8.04436 9.5248 7.95646 9.61271C7.86855 9.70061 7.74932 9.75 7.625 9.75V10.5C7.94823 10.5 8.25823 10.3716 8.48679 10.143C8.71535 9.91448 8.84375 9.60448 8.84375 9.28125H9.34375C9.73125 9.28125 10.0625 9.20938 10.3438 9.09375C10.625 9.20938 10.9563 9.28125 11.3438 9.28125H12.5938V5.5H11.8438ZM13.0625 5.5V9.28125H13.8125V5.5H13.0625ZM2.75 5.5V6.25H3.5V5.5H2.75ZM3.96875 5.5V6.25H4.71875V5.5H3.96875ZM4.71875 6.71875C4.03913 6.71875 3.38735 6.98873 2.90679 7.46929C2.42623 7.94985 2.15625 8.60163 2.15625 9.28125H2.90625C2.90626 8.93324 3.00645 8.5926 3.19486 8.30001C3.38328 8.00742 3.65194 7.77525 3.96875 7.63125V9.28125H7.15625V6.71875H6.40625V8.53125H5.9375V6.71875H5.1875V8.53125H4.71875V6.71875ZM10.3438 7.46875C10.45 7.46875 10.4906 7.5 10.5344 7.575C10.5624 7.6255 10.5801 7.68105 10.5866 7.73844C10.593 7.79583 10.588 7.85392 10.5719 7.90938C10.5437 8.02188 10.4781 8.15 10.3438 8.25937C10.2328 8.16962 10.1529 8.04714 10.1156 7.90938C10.0995 7.85392 10.0945 7.79583 10.1009 7.73844C10.1074 7.68105 10.1251 7.6255 10.1531 7.575C10.1969 7.5 10.2375 7.46875 10.3438 7.46875ZM3.96875 9.75V10.5H4.71875V9.75H3.96875ZM5.1875 9.75V10.5H5.9375V9.75H5.1875ZM6.40625 9.75V10.5H7.15625V9.75H6.40625Z"
            fill="#EEEEEE" />
    </g>
</svg>